<?xml version="1.0" encoding="iso-8859-1"?>
<!-- Generator: Adobe Illustrator 19.0.0, SVG Export Plug-In . SVG Version: 6.00 Build 0)  -->
<svg version="1.1" id="Layer_1" xmlns="http://www.w3.org/2000/svg" xmlns:xlink="http://www.w3.org/1999/xlink" x="0px" y="0px"
	 viewBox="0 0 512 512" style="enable-background:new 0 0 512 512;" xml:space="preserve">
<circle style="fill:#662E57;" cx="256" cy="256" r="256"/>
<path style="fill:#590F38;" d="M186.479,265.146l206.9,206.9C464.693,426.604,512,346.829,512,256c0-0.991-0.026-1.975-0.037-2.963
	L347.542,104.17L186.479,265.146z"/>
<path style="fill:#FFCE00;" d="M258.002,495.743h-4.005c-62.24,0-112.696-50.456-112.696-112.696V172.863
	c0-62.24,50.456-112.696,112.696-112.696h4.005c62.24,0,112.696,50.456,112.696,112.696v210.184
	C370.699,445.288,320.243,495.743,258.002,495.743z"/>
<path style="fill:#FFC000;" d="M256,60.167L256,60.167c-0.112,0-0.222,0.004-0.333,0.004V495.74c0.111,0,0.222,0.004,0.333,0.004
	l0,0c63.346,0,114.698-49.575,114.698-110.729V170.896C370.699,109.742,319.346,60.167,256,60.167z"/>
<circle style="fill:#EFD48F;" cx="155.86" cy="243.98" r="28.808"/>
<circle style="fill:#E7C46B;" cx="356.14" cy="243.98" r="28.808"/>
<path style="fill:#FFF0CC;" d="M460.799,409.616l-8.525-17.542l-152.978-37.523v-30.788h-86.591v30.788L59.726,392.075
	l-8.525,17.542C97.907,471.784,172.255,512,256,512S414.093,471.785,460.799,409.616z"/>
<path style="fill:#E2CEA6;" d="M452.274,392.075l-152.978-37.523v-30.788h-43.629v188.234c0.111,0,0.222,0.002,0.333,0.002
	c83.745,0,158.093-40.215,204.799-102.384L452.274,392.075z"/>
<path style="fill:#FFECB3;" d="M259.207,336.634h-6.414c-53.536,0-96.936-43.4-96.936-96.936v-70.272
	c0-53.536,43.4-96.936,96.936-96.936h6.414c53.536,0,96.936,43.4,96.936,96.936v70.272
	C356.143,293.234,312.743,336.634,259.207,336.634z"/>
<path style="fill:#E8D3A0;" d="M356.143,171.567C356.14,119.747,311.306,77.739,256,77.739l0,0c-0.111,0-0.222,0.004-0.333,0.004
	v258.891h3.54c53.536,0,96.936-43.4,96.936-96.936V171.567z"/>
<circle style="fill:#1A1A1A;" cx="313.02" cy="229.85" r="10.803"/>
<circle style="fill:#333333;" cx="198.98" cy="229.85" r="10.803"/>
<path style="fill:#E7AF5B;" d="M256.354,257.642h-0.708c-6.156,0-11.146-4.99-11.146-11.146v-6.068h23v6.068
	C267.5,252.651,262.51,257.642,256.354,257.642z"/>
<path style="fill:#D39746;" d="M255.667,240.428v17.214h0.687c6.156,0,11.146-4.99,11.146-11.146v-6.068L255.667,240.428
	L255.667,240.428z"/>
<path style="fill:#FFCE00;" d="M335.108,102.255C308.709,77.519,278.153,69,256,69s-52.709,8.519-79.108,33.255
	c-34.2,32.045-21.389,140.696-21.389,140.696s55.747-53.359,85.173-80.931c5.943-5.568,11.061-11.471,15.324-17.48
	c4.263,6.008,9.381,11.911,15.324,17.48c29.426,27.572,85.173,80.931,85.173,80.931S370.658,135.564,335.108,102.255z"/>
<path style="fill:#FFC000;" d="M335.108,102.255C308.709,77.519,278.153,69,256,69c-0.11,0-0.223,0.004-0.333,0.004v75.993
	c0.109-0.153-0.108,0.153,0,0c4.263,6.008,9.714,11.454,15.657,17.022c29.426,27.572,85.173,80.931,85.173,80.931
	S370.658,135.564,335.108,102.255z"/>
<path style="fill:#FFFFFF;" d="M452.274,392.075L359,369.196l-10.692,71.265l-92.091,32.077l-92.524-32.077L153,369.196
	l-93.274,22.879l-8.525,17.542C97.907,471.784,172.255,512,256,512s158.093-40.215,204.799-102.384L452.274,392.075z"/>
<path style="fill:#E0E0E0;" d="M452.274,392.075L359,369.196l-10.692,71.265l-92.091,32.077l-0.55-0.191v39.65
	c0.111,0,0.222,0.002,0.333,0.002c83.745,0,158.093-40.215,204.799-102.384L452.274,392.075z"/>
<path style="fill:#F1333F;" d="M391.976,443.577c-39.4,24.754-86.009,39.089-135.976,39.089s-96.575-14.335-135.976-39.089v29.356
	C159.423,497.683,206.038,512,256,512s96.577-14.317,135.976-39.067V443.577z"/>
<path style="fill:#AE283F;" d="M256,482.667c-0.111,0-0.222-0.003-0.333-0.003v29.333c0.111,0,0.222,0.003,0.333,0.003
	c49.962,0,96.577-14.317,135.976-39.067v-29.356C352.575,468.332,305.967,482.667,256,482.667z"/>
<path style="fill:#4D4D4D;" d="M103,461.258c6.854,5.118,13.974,9.9,21.333,14.323v-99.353L103,381.46V461.258z"/>
<path style="fill:#333333;" d="M387.667,475.581c7.36-4.423,14.479-9.205,21.333-14.323V381.46l-21.333-5.233V475.581z"/>
<path style="fill:#F1333F;" d="M255.667,303c-16.818,0-30.5-13.682-30.5-30.5h12c0,10.201,8.299,18.5,18.5,18.5
	s18.5-8.299,18.5-18.5h12C286.167,289.318,272.485,303,255.667,303z"/>
<path style="fill:#AE283F;" d="M255.667,291c10.201,0,18.5-8.299,18.5-18.5h12c0,16.818-13.682,30.5-30.5,30.5L255.667,291
	L255.667,291z"/>
<g>
</g>
<g>
</g>
<g>
</g>
<g>
</g>
<g>
</g>
<g>
</g>
<g>
</g>
<g>
</g>
<g>
</g>
<g>
</g>
<g>
</g>
<g>
</g>
<g>
</g>
<g>
</g>
<g>
</g>
</svg>
