<?xml version="1.0" encoding="iso-8859-1"?>
<!-- Generator: Adobe Illustrator 19.0.0, SVG Export Plug-In . SVG Version: 6.00 Build 0)  -->
<svg version="1.1" id="Layer_1" xmlns="http://www.w3.org/2000/svg" xmlns:xlink="http://www.w3.org/1999/xlink" x="0px" y="0px"
	 viewBox="0 0 512 512" style="enable-background:new 0 0 512 512;" xml:space="preserve">
<circle style="fill:#FF3F84;" cx="256" cy="256" r="256"/>
<path style="fill:#983262;" d="M511.967,258.618L341.497,93.401L137.49,266.169l18.367,18.068l8.08,33.352L343.129,496.78
	C440.839,461.416,510.866,368.273,511.967,258.618z"/>
<path d="M306.457,317.589h41.755c26.534,0,48.044-21.51,48.044-48.044l0,0c0-26.534-21.51-48.044-48.044-48.044h-41.755
	c-26.534,0-48.045,21.51-48.045,48.044l0,0C258.413,296.079,279.923,317.589,306.457,317.589z"/>
<path style="fill:#EFD48F;" d="M460.799,409.616l-8.525-17.542l-152.978-37.523v-30.788h-86.591v30.788L59.726,392.075
	l-8.525,17.542C97.907,471.784,172.255,512,256,512S414.093,471.785,460.799,409.616z"/>
<path style="fill:#E7C46B;" d="M452.274,392.075l-152.978-37.523v-30.788h-43.629v188.234c0.111,0,0.222,0.002,0.333,0.002
	c83.745,0,158.093-40.215,204.799-102.384L452.274,392.075z"/>
<circle style="fill:#EFD48F;" cx="155.86" cy="243.98" r="28.808"/>
<circle style="fill:#E7C46B;" cx="356.14" cy="243.98" r="28.808"/>
<path style="fill:#FFECB3;" d="M257.132,336.634h-2.265c-54.682,0-99.011-44.329-99.011-99.011v-77.55
	c0-54.682,44.329-99.011,99.011-99.011h2.265c54.682,0,99.011,44.329,99.011,99.011v77.55
	C356.143,292.305,311.814,336.634,257.132,336.634z"/>
<path style="fill:#E8D3A0;" d="M256,64.062L256,64.062c-0.112,0-0.222,0.004-0.333,0.004v272.567h1.466
	c54.682,0,99.011-44.329,99.011-99.011v-75.669C356.143,107.89,311.308,64.062,256,64.062z"/>
<path style="fill:#333333;" d="M256,60.167c-61.166,0-110.751,38.018-110.751,97.809v119.596c0,14.3,2.843,27.949,18.688,40.446
	v-83.299c16.709-8.526,54.344-28.979,76.74-50.87c5.943-5.809,11.06-11.967,15.324-18.236c4.263,6.268,9.381,12.426,15.324,18.236
	c22.395,21.892,60.031,42.345,76.74,50.87v83.299c15.845-12.496,18.688-26.146,18.688-40.446V157.976
	C366.751,98.185,317.166,60.167,256,60.167z"/>
<g>
	<path style="fill:#1A1A1A;" d="M256,60.167c-0.111,0-0.222,0.003-0.333,0.003v105.919c0.109-0.159,0.225-0.317,0.333-0.477
		c4.263,6.268,9.381,12.426,15.324,18.236c22.395,21.892,60.031,42.345,76.74,50.87v83.299
		c15.845-12.496,18.688-26.146,18.688-40.446V157.976C366.751,98.185,317.166,60.167,256,60.167z"/>
	<circle style="fill:#1A1A1A;" cx="313.02" cy="238.23" r="10.803"/>
</g>
<circle style="fill:#333333;" cx="198.98" cy="238.23" r="10.803"/>
<path style="fill:#EFD48F;" d="M260.801,252.583h-9.603c-7.955,0-14.404-6.449-14.404-14.404v-2.81h38.411v2.81
	C275.206,246.134,268.757,252.583,260.801,252.583z"/>
<path style="fill:#E7C46B;" d="M255.667,235.369v17.214h5.135c7.955,0,14.404-6.449,14.404-14.404v-2.81H255.667z"/>
<path style="fill:#35CCFF;" d="M452.274,392.075l-140.48-34.457l-54.954,60.264l-56.635-60.264l-140.48,34.457L51.2,409.617
	C97.907,471.784,172.255,512,256,512s158.093-40.215,204.799-102.384L452.274,392.075z"/>
<path style="fill:#FFA1C3;" d="M460.799,409.616l-8.525-17.542l-140.48-34.457l-54.954,60.264l-56.635-60.264l-37.185,9.121
	l128.89,142.756C360.799,499.823,420.891,462.736,460.799,409.616z"/>
<path style="fill:#E0E0E0;" d="M460.799,409.616l-8.525-17.542l-140.48-34.457l-54.954,60.264l-56.635-60.264l-18.329,4.496
	l133.575,142.94C374.434,491.025,425.508,456.59,460.799,409.616z"/>
<path id="SVGCleanerId_0" style="fill:#00BAFF;" d="M452.274,392.075l-140.48-34.457L256.841,415l-81.151,84.141
	C200.948,507.481,227.946,512,256,512c83.745,0,158.093-40.215,204.799-102.384L452.274,392.075z"/>
<g>
	<path id="SVGCleanerId_0_1_" style="fill:#00BAFF;" d="M452.274,392.075l-140.48-34.457L256.841,415l-81.151,84.141
		C200.948,507.481,227.946,512,256,512c83.745,0,158.093-40.215,204.799-102.384L452.274,392.075z"/>
</g>
<path style="fill:#008CC3;" d="M452.274,392.075l-140.48-34.457L256.841,415l-1.174,1.217v95.779c0.111,0,0.222,0.003,0.333,0.003
	c83.745,0,158.093-40.215,204.799-102.384L452.274,392.075z"/>
<path style="fill:#FFA1C3;" d="M311.794,357.617L256.841,415l-81.151,84.141c13.017,4.298,26.499,7.572,40.345,9.745L346.56,366.145
	L311.794,357.617z"/>
<polygon style="fill:#FF3F84;" points="311.794,357.617 256.841,415 255.667,416.217 255.667,465.545 346.56,366.145 "/>
<path style="fill:#FFFFFF;" d="M273.147,421.045l56.54-59.039l-17.892-4.389L256.841,415l-81.151,84.141
	c5.677,1.874,11.446,3.544,17.29,5.025L273.147,421.045z"/>
<polygon style="fill:#E0E0E0;" points="329.687,362.006 311.794,357.617 256.841,415 255.667,416.217 255.667,439.169 
	273.147,421.045 "/>
<g>
	<path style="fill:#983262;" d="M235.31,450.398l-30.11,4.558v25.924l30.11,4.558c6.18,0,11.19-6.807,11.19-15.203v-4.634
		C246.5,457.204,241.49,450.398,235.31,450.398z"/>
	<path style="fill:#983262;" d="M162.658,485.438l30.11-4.558v-25.925l-30.11-4.559c-6.18,0-11.19,6.807-11.19,15.204v4.634
		C151.467,478.631,156.477,485.438,162.658,485.438z"/>
	<path style="fill:#983262;" d="M185.549,502.176c8.773,2.506,17.738,4.556,26.869,6.122v-33.661h-26.869V502.176z"/>
</g>
<path style="fill:#FF3F84;" d="M190.173,482.419h17.621c3.578,0,6.478-2.9,6.478-6.478v-15.289c0-3.578-2.9-6.478-6.478-6.478
	h-17.621c-3.578,0-6.478,2.9-6.478,6.478v15.289C183.695,479.519,186.595,482.419,190.173,482.419z"/>
<path style="fill:#FF9451;" d="M255.667,303c-16.818,0-30.5-13.682-30.5-30.5h12c0,10.201,8.299,18.5,18.5,18.5
	s18.5-8.299,18.5-18.5h12C286.167,289.318,272.485,303,255.667,303z"/>
<path style="fill:#F7674F;" d="M255.667,291c10.201,0,18.5-8.299,18.5-18.5h12c0,16.818-13.682,30.5-30.5,30.5L255.667,291
	L255.667,291z"/>
<g>
</g>
<g>
</g>
<g>
</g>
<g>
</g>
<g>
</g>
<g>
</g>
<g>
</g>
<g>
</g>
<g>
</g>
<g>
</g>
<g>
</g>
<g>
</g>
<g>
</g>
<g>
</g>
<g>
</g>
</svg>
