<svg id="Capa_1" enable-background="new 0 0 512 512" height="512" viewBox="0 0 512 512" width="512" xmlns="http://www.w3.org/2000/svg"><g><g><g><path d="m173.441 46.899c-6.383-5.279-15.839-4.384-21.119 2-19.876 24.036-30.822 54.436-30.822 85.601 0 8.284 6.716 15 15 15s15-6.716 15-15c0-24.202 8.502-47.812 23.941-66.482 5.28-6.385 4.384-15.84-2-21.119z" fill="#988ee1"/><path d="m131.467 3.79c-6.19-5.504-15.672-4.948-21.177 1.243-31.785 35.751-49.29 81.73-49.29 129.467 0 8.284 6.716 15 15 15s15-6.716 15-15c0-40.38 14.813-79.28 41.71-109.533 5.504-6.192 4.948-15.673-1.243-21.177z" fill="#988ee1"/><g fill="#7e6be0"><path d="m338.559 46.899c-6.384 5.279-7.28 14.734-2 21.119 15.439 18.67 23.941 42.28 23.941 66.482 0 8.284 6.716 15 15 15s15-6.716 15-15c0-31.165-10.946-61.565-30.822-85.601-5.279-6.384-14.735-7.279-21.119-2z"/><path d="m401.71 5.033c-5.504-6.191-14.985-6.747-21.177-1.243-6.191 5.504-6.748 14.985-1.243 21.177 26.897 30.253 41.71 69.153 41.71 109.533 0 8.284 6.716 15 15 15s15-6.716 15-15c0-47.737-17.505-93.716-49.29-129.467z"/></g></g><path d="m331 256v30c0 7.65-1.15 15.04-3.3 22h-143.4c-2.15-6.96-3.3-14.35-3.3-22v-30l5-3h141z" fill="#3f4a4a"/><path d="m331 256v30c0 7.65-1.15 15.04-3.3 22h-71.7v-55h71z" fill="#2c3a3a"/><path d="m316 136 13.49-15c-6.96-34.19-37.27-60-73.49-60s-66.53 25.81-73.49 60l12.49 15-14 15v30l15 15-15 15v45h150v-45l-15-15 15-15v-30z" fill="#effaff"/><path d="m331 181-15 15 15 15v45h-75v-195c36.22 0 66.53 25.81 73.49 60l-13.49 15 15 15z" fill="#c3e3e9"/><g><path d="m248 196c0 8.28-6.72 15-15 15h-52v-30h52c8.28 0 15 6.72 15 15z" fill="#c3e3e9"/><path d="m331 181v30h-52c-8.28 0-15-6.72-15-15s6.72-15 15-15z" fill="#a9cad5"/><path d="m331 136v15h-52c-8.28 0-15-6.72-15-15s6.72-15 15-15h50.49c.99 4.85 1.51 9.87 1.51 15z" fill="#a9cad5"/><path d="m248 136c0 8.28-6.72 15-15 15h-52v-15c0-5.13.52-10.15 1.51-15h50.49c8.28 0 15 6.72 15 15z" fill="#c3e3e9"/></g></g><path d="m467 302h-174.787l-25.607-25.606c-5.839-5.84-15.299-5.86-21.164-.049l-25.615 25.38h-174.827c-24.813 0-45 20.187-45 45v120.275c0 24.813 20.187 45 45 45h422c24.813 0 45-20.187 45-45v-120c0-24.814-20.187-45-45-45z" fill="#f1ca50"/><path d="m512 347v120c0 24.81-20.19 45-45 45h-211v-240c3.84 0 7.68 1.46 10.61 4.39l25.6 25.61h174.79c24.81 0 45 20.19 45 45z" fill="#ecb700"/><path d="m436 361h-239c-8.284 0-15 6.716-15 15s6.716 15 15 15h239c8.284 0 15-6.716 15-15s-6.716-15-15-15z" fill="#f5dc90"/><path d="m451 376c0 8.28-6.72 15-15 15h-180v-30h180c8.28 0 15 6.72 15 15z" fill="#f1ca50"/><path d="m376 421h-180c-8.284 0-15 6.716-15 15s6.716 15 15 15h180c8.284 0 15-6.716 15-15s-6.716-15-15-15z" fill="#f5dc90"/><path d="m391 436c0 8.28-6.72 15-15 15h-120v-30h120c8.28 0 15 6.72 15 15z" fill="#f1ca50"/><g><circle cx="76" cy="376" fill="#e27500" r="15"/></g><g><circle cx="136" cy="376" fill="#e27500" r="15"/></g><g><path d="m106 451c-16.291 0-31.35-8.841-39.302-23.072-4.041-7.231-1.455-16.37 5.777-20.411 7.233-4.038 16.371-1.454 20.411 5.778 2.656 4.753 7.681 7.705 13.114 7.705 5.699 0 10.836-3.165 13.408-8.261 3.733-7.396 12.754-10.364 20.149-6.633 7.396 3.733 10.365 12.754 6.633 20.15-7.702 15.263-23.102 24.744-40.19 24.744z" fill="#e27500"/></g></g></svg>