<svg id="Layer_1" enable-background="new 0 0 512 512" height="512" viewBox="0 0 512 512" width="512" xmlns="http://www.w3.org/2000/svg"><g><path d="m192.008 504v-80h-56c-22.091 0-40-17.909-40-40v-64h-27.055c-7.149 0-12.944-5.795-12.944-12.944 0-4.362-1.887.719 40-83.056v-36c0-99.411 80.589-180 180-180 99.135 0 180 80.315 180 180 0 75.905-20.629 150.382-59.681 215.469l-12.32 20.531v80z" fill="#ebb19c"/><path d="m456.008 188c0 75.605-20.485 150.111-59.68 215.47l-12.32 20.53v80h-40v-80c17.555-29.254 40.38-64.94 56.8-124.21 10.04-36.25 15.2-73.84 15.2-111.79 0-92.502-69.852-168.937-160-178.9 106.944-11.882 200 71.848 200 178.9z" fill="#e58d72"/><path d="m304.008 248h-32v-24c0-44.183 35.817-80 80-80h32v24c0 44.183-35.817 80-80 80z" fill="#79cb9c"/><path d="m384.008 144v24c0 44.18-35.82 80-80 80h-32c44.18 0 80-35.82 80-80v-24z" fill="#63ac7d"/><path d="m240.008 248h32v-24c0-44.183-35.817-80-80-80h-32v24c0 44.183 35.818 80 80 80z" fill="#79cb9c"/><path d="m272.008 224v24h-32v-24c0-44.18-35.82-80-80-80h32c44.18 0 80 35.82 80 80z" fill="#63ac7d"/><path d="m276.008 0c-103.664 0-188 84.336-188 188v34.111l-37.788 75.577c-6.949 13.897 3.2 30.312 18.733 30.312h19.056v56c0 26.467 21.533 48 48 48h48v72c0 4.418 3.582 8 8 8s8-3.582 8-8v-80c0-4.418-3.582-8-8-8h-56c-17.645 0-32-14.355-32-32v-64c0-4.418-3.582-8-8-8h-27.056c-2.727 0-4.944-2.218-4.944-4.944 0-1.714-2.653 4.139 39.155-79.478 1.178-2.357.845-.794.845-39.578 0-94.841 77.159-172 172-172s172 77.159 172 172c0 74.438-20.243 147.523-58.542 211.353l-12.318 20.531c-1.629 2.715-1.14-2.994-1.14 84.116 0 4.418 3.582 8 8 8s8-3.582 8-8v-77.784l11.178-18.631c39.79-66.315 60.822-142.247 60.822-219.585-.001-103.664-84.337-188-188.001-188z"/><path d="m392.008 144c0-4.418-3.582-8-8-8h-32c-35.455 0-66.076 21.078-80 51.36-13.924-30.281-44.545-51.36-80-51.36h-32c-4.418 0-8 3.582-8 8v24c0 48.523 39.477 88 88 88h24v32c0 4.418 3.582 8 8 8s8-3.582 8-8v-32h24c48.523 0 88-39.477 88-88zm-224 24v-16h24c39.701 0 72 32.299 72 72v6.37l-50.732-44.39c-3.326-2.911-8.38-2.572-11.289.753-2.91 3.324-2.573 8.379.752 11.288l47.978 41.979h-10.708c-39.702 0-72.001-32.299-72.001-72zm208 0c0 39.701-32.299 72-72 72h-10.708l47.977-41.979c3.325-2.909 3.662-7.964.752-11.288-2.909-3.327-7.963-3.664-11.289-.753l-50.732 44.39v-6.37c0-39.701 32.299-72 72-72h24z"/></g></svg>